<svg xmlns="http://www.w3.org/2000/svg" xmlns:xlink="http://www.w3.org/1999/xlink" version="1.1" width="1187.2" height="762.9549333134574"><g id="scan-tag"><g id="4"><polyline points="912,472 912,384" fill="none" stroke-width="1" stroke="#adb3b3" opacity="1"></polyline></g><g id="4"><rect width="20.4" height="22.2" x="901.8" y="416.9" rx="4" ry="4" fill-opacity="0.8" fill="#323435" stroke-opacity="1" stroke-width="1" stroke="#434647" opacity="0.8"></rect><g opacity="1" fill="#e5e7e8"><text font-family="IBM Plex Sans Medium, Arial, sans-serif" font-size="14" text-anchor="middle" x="912" y="433.25"><tspan dy="0" x="912">4</tspan></text></g></g><g id="5"><polyline points="912,256 912,160" fill="none" stroke-width="1" stroke="#adb3b3" opacity="1"></polyline></g><g id="5"><rect width="20.4" height="22.2" x="901.8" y="196.9" rx="4" ry="4" fill-opacity="0.8" fill="#323435" stroke-opacity="1" stroke-width="1" stroke="#434647" opacity="0.8"></rect><g opacity="1" fill="#e5e7e8"><text font-family="IBM Plex Sans Medium, Arial, sans-serif" font-size="14" text-anchor="middle" x="912" y="213.24999999999997"><tspan dy="0" x="912">5</tspan></text></g></g><g id="6"><polyline points="1040,320 1064,320 1074.44,320.70000000000005 1084.16,322.75 1093.16,326.04999999999995 1101.44,330.5 1109,336 1115.84,342.46000000000004 1121.96,349.78999999999996 1127.3600000000001,357.8900000000001 1132.04,366.6600000000001 1136,376 1141.76,396.03 1143.56,406.53 1145,428 1143.56,449.47 1141.76,459.97 1136,480 1132.04,489.3399999999999 1127.3600000000001,498.1099999999999 1121.96,506.21000000000004 1115.84,513.54 1109,520 1101.44,525.5 1093.16,529.95 1084.16,533.25 1074.44,535.3 1064,536 1040,536" fill="none" stroke-width="1" stroke="#adb3b3" opacity="1"></polyline></g><g id="6"><rect width="20.4" height="22.2" x="1134.8" y="416.90000000000003" rx="4" ry="4" fill-opacity="0.8" fill="#323435" stroke-opacity="1" stroke-width="1" stroke="#434647" opacity="0.8"></rect><g opacity="1" fill="#e5e7e8"><text font-family="IBM Plex Sans Medium, Arial, sans-serif" font-size="14" text-anchor="middle" x="1145" y="433.25000000000006"><tspan dy="0" x="1145">6</tspan></text></g></g><g id="7"><polyline points="912,600 911.47,632.3399999999999 909.9300000000001,640.31 907.41,647.8900000000001 903.97,655.0999999999999 899.65,661.9300000000001 894.51,668.3699999999999 888.58,674.44 874.56,685.44 866.5699999999999,690.3699999999999 848.85,699.0899999999999 839.23,702.8900000000001 818.67,709.3299999999999 807.83,711.99 785.28,716.1600000000001 761.88,718.81 738,719.95 714.03,719.5699999999999 690.34,717.6800000000001 667.31,714.26 656.17,711.99 634.85,706.3 615.15,699.0899999999999 597.4300000000001,690.3699999999999 589.44,685.44 575.42,674.44 569.49,668.3699999999999 564.35,661.9300000000001 560.03,655.0999999999999 556.59,647.8900000000001 554.0699999999999,640.31 552.53,632.3399999999999 552,600" fill="none" stroke-width="1" stroke="#adb3b3" opacity="1"></polyline></g><g id="7"><rect width="20.4" height="22.2" x="721.8032934830868" y="708.7549333134574" rx="4" ry="4" fill-opacity="0.8" fill="#323435" stroke-opacity="1" stroke-width="1" stroke="#434647" opacity="0.8"></rect><g opacity="1" fill="#e5e7e8"><text font-family="IBM Plex Sans Medium, Arial, sans-serif" font-size="14" text-anchor="middle" x="732.0032934830868" y="725.1049333134575"><tspan dy="0" x="732.0032934830868">7</tspan></text></g></g><g id="8"><polyline points="552,472 552,368" fill="none" stroke-width="1" stroke="#adb3b3" opacity="1"></polyline></g><g id="8"><rect width="20.4" height="22.2" x="541.8" y="408.9" rx="4" ry="4" fill-opacity="0.8" fill="#323435" stroke-opacity="1" stroke-width="1" stroke="#434647" opacity="0.8"></rect><g opacity="1" fill="#e5e7e8"><text font-family="IBM Plex Sans Medium, Arial, sans-serif" font-size="14" text-anchor="middle" x="552" y="425.25"><tspan dy="0" x="552">8</tspan></text></g></g><g id="2"><polyline points="288,536 424,536" fill="none" stroke-width="1" stroke="#adb3b3" opacity="1"></polyline></g><g id="2"><rect width="20.4" height="22.2" x="345.8" y="524.9" rx="4" ry="4" fill-opacity="0.8" fill="#323435" stroke-opacity="1" stroke-width="1" stroke="#434647" opacity="0.8"></rect><g opacity="1" fill="#e5e7e8"><text font-family="IBM Plex Sans Medium, Arial, sans-serif" font-size="14" text-anchor="middle" x="356" y="541.2500000000001"><tspan dy="0" x="356">2</tspan></text></g></g><g id="1"><polyline points="160,368 160,472" fill="none" stroke-width="1" stroke="#adb3b3" opacity="1"></polyline></g><g id="1"><rect width="20.4" height="22.2" x="149.8" y="408.9" rx="4" ry="4" fill-opacity="0.8" fill="#323435" stroke-opacity="1" stroke-width="1" stroke="#434647" opacity="0.8"></rect><g opacity="1" fill="#e5e7e8"><text font-family="IBM Plex Sans Medium, Arial, sans-serif" font-size="14" text-anchor="middle" x="160" y="425.25"><tspan dy="0" x="160">1</tspan></text></g></g><g id="3"><polyline points="680,536 784,536" fill="none" stroke-width="1" stroke="#adb3b3" opacity="1"></polyline></g><g id="3"><rect width="20.4" height="22.2" x="721.8" y="524.9" rx="4" ry="4" fill-opacity="0.8" fill="#323435" stroke-opacity="1" stroke-width="1" stroke="#434647" opacity="0.8"></rect><g opacity="1" fill="#e5e7e8"><text font-family="IBM Plex Sans Medium, Arial, sans-serif" font-size="14" text-anchor="middle" x="732" y="541.2500000000001"><tspan dy="0" x="732">3</tspan></text></g></g><a href="https://app.icepanel.io/landscapes/lOMxQS5qhpIIqLMpiD2Z/versions/latest/model/objects?object=iymTqjHGa9&amp;focus=iymTqjHGa9" id="pets nfc tag" target="_blank"><rect width="256" height="128" rx="8" ry="8" fill-opacity="0.8" fill="#1f2121" stroke-opacity="1" stroke-width="1" stroke="#434647" opacity="1" x="32" y="472"></rect><text font-family="IBM Plex Sans Medium, Arial, sans-serif" font-size="24" font-weight="500" text-anchor="middle" fill="#ffffff" opacity="1" x="160" y="541.0000000000001"><tspan dy="0" x="160">pets nfc tag</tspan></text><g id="System" opacity="1"><text font-family="Courier New, monospace" font-size="12" text-anchor="middle" fill="#adb3b3" x="160" y="588.6552734375"><tspan dy="0" x="160">System</tspan></text></g></a><a href="https://app.icepanel.io/landscapes/lOMxQS5qhpIIqLMpiD2Z/versions/latest/model/objects?object=emIwiRiOfI&amp;focus=emIwiRiOfI" id="frontend" target="_blank"><rect width="256" height="128" rx="8" ry="8" fill-opacity="0.8" fill="#1f2121" stroke-opacity="1" stroke-width="1" stroke="#434647" opacity="1" x="784" y="472"></rect><text font-family="IBM Plex Sans Medium, Arial, sans-serif" font-size="24" font-weight="500" text-anchor="middle" fill="#ffffff" opacity="1" x="912.0000000000001" y="541.0000000000001"><tspan dy="0" x="912.0000000000001">frontend</tspan></text><g id="System" opacity="1"><text font-family="Courier New, monospace" font-size="12" text-anchor="middle" fill="#adb3b3" x="912" y="588.6552734375"><tspan dy="0" x="912">System</tspan></text></g></a><a href="https://app.icepanel.io/landscapes/lOMxQS5qhpIIqLMpiD2Z/versions/latest/model/objects?object=Z7fHkqSdkh&amp;focus=Z7fHkqSdkh" id="random person" target="_blank"><rect width="56" height="56" rx="8" ry="8" fill-opacity="0.8" fill="#1f2121" stroke-opacity="1" stroke-width="1" stroke="#434647" opacity="1" x="132" y="208"></rect><rect width="256" height="96" rx="8" ry="8" fill-opacity="0.8" fill="#1f2121" stroke-opacity="1" stroke-width="1" stroke="#434647" opacity="1" x="32" y="272"></rect><path d="M160 237.71428571428572C163.7875 237.71428571428572 166.85714285714286 234.64464285714286 166.85714285714286 230.85714285714286C166.85714285714286 227.06964285714287 163.7875 224 160 224C156.2125 224 153.14285714285714 227.06964285714287 153.14285714285714 230.85714285714286C153.14285714285714 234.64464285714286 156.2125 237.71428571428572 160 237.71428571428572ZM164.8 239.42857142857142L163.90535714285716 239.42857142857142C162.71607142857144 239.975 161.39285714285714 240.28571428571428 160 240.28571428571428C158.60714285714286 240.28571428571428 157.2892857142857 239.975 156.09464285714284 239.42857142857142L155.2 239.42857142857142C151.225 239.42857142857142 148 242.6535714285714 148 246.62857142857143L148 248.85714285714286C148 250.27678571428572 149.15178571428572 251.42857142857144 150.57142857142856 251.42857142857144L169.42857142857142 251.42857142857144C170.84821428571428 251.42857142857144 172 250.27678571428572 172 248.85714285714286L172 246.62857142857143C172 242.6535714285714 168.775 239.42857142857142 164.8 239.42857142857142Z " fill="#ffffff" opacity="1"></path><text font-family="IBM Plex Sans Medium, Arial, sans-serif" font-size="24" font-weight="500" text-anchor="middle" fill="#ffffff" opacity="1" x="160" y="320"><tspan dy="0" x="160">random person</tspan></text><g id="Actor" opacity="1"><text font-family="Courier New, monospace" font-size="12" text-anchor="middle" fill="#adb3b3" x="160" y="356.6552734375"><tspan dy="0" x="160">Actor</tspan></text></g></a><a href="https://app.icepanel.io/landscapes/lOMxQS5qhpIIqLMpiD2Z/versions/latest/model/objects?object=dOaylTKlKa&amp;focus=dOaylTKlKa" id="database" target="_blank"><rect width="256" height="128" rx="8" ry="8" fill-opacity="0.8" fill="#1f2121" stroke-opacity="1" stroke-width="1" stroke="#434647" opacity="1" x="784" y="32"></rect><text font-family="IBM Plex Sans Medium, Arial, sans-serif" font-size="24" font-weight="500" text-anchor="middle" fill="#ffffff" opacity="1" x="912" y="101"><tspan dy="0" x="912">database</tspan></text><g id="System" opacity="1"><text font-family="Courier New, monospace" font-size="12" text-anchor="middle" fill="#adb3b3" x="912" y="148.6552734375"><tspan dy="0" x="912">System</tspan></text></g></a><a href="https://app.icepanel.io/landscapes/lOMxQS5qhpIIqLMpiD2Z/versions/latest/model/objects?object=bNlv73hLvH&amp;focus=bNlv73hLvH" id="mobile phone (owner)" target="_blank"><rect width="256" height="128" rx="8" ry="8" fill-opacity="0.8" fill="#1f2121" stroke-opacity="1" stroke-width="1" stroke="#434647" opacity="1" x="424" y="240"></rect><text font-family="IBM Plex Sans Medium, Arial, sans-serif" font-size="24" font-weight="500" text-anchor="middle" fill="#ffffff" opacity="1" x="552" y="309"><tspan dy="0" x="552">mobile phone (owner)</tspan></text><g id="System" opacity="1"><text font-family="Courier New, monospace" font-size="12" text-anchor="middle" fill="#adb3b3" x="552" y="356.6552734375"><tspan dy="0" x="552">System</tspan></text></g></a><a href="https://app.icepanel.io/landscapes/lOMxQS5qhpIIqLMpiD2Z/versions/latest/model/objects?object=6zveAAAo0F&amp;focus=6zveAAAo0F" id="backend" target="_blank"><rect width="256" height="128" rx="8" ry="8" fill-opacity="0.8" fill="#1f2121" stroke-opacity="1" stroke-width="1" stroke="#434647" opacity="1" x="784" y="256"></rect><text font-family="IBM Plex Sans Medium, Arial, sans-serif" font-size="24" font-weight="500" text-anchor="middle" fill="#ffffff" opacity="1" x="912.0000000000001" y="325"><tspan dy="0" x="912.0000000000001">backend</tspan></text><g id="System" opacity="1"><text font-family="Courier New, monospace" font-size="12" text-anchor="middle" fill="#adb3b3" x="912" y="372.6552734375"><tspan dy="0" x="912">System</tspan></text></g></a><a href="https://app.icepanel.io/landscapes/lOMxQS5qhpIIqLMpiD2Z/versions/latest/model/objects?object=cm0RdFGMeQ&amp;focus=cm0RdFGMeQ" id="mobile phone (finder)" target="_blank"><rect width="256" height="128" rx="8" ry="8" fill-opacity="0.8" fill="#1f2121" stroke-opacity="1" stroke-width="1" stroke="#434647" opacity="1" x="424" y="472"></rect><text font-family="IBM Plex Sans Medium, Arial, sans-serif" font-size="24" font-weight="500" text-anchor="middle" fill="#ffffff" opacity="1" x="552" y="541.0000000000001"><tspan dy="0" x="552">mobile phone (finder)</tspan></text><g id="System" opacity="1"><text font-family="Courier New, monospace" font-size="12" text-anchor="middle" fill="#adb3b3" x="552" y="588.6552734375"><tspan dy="0" x="552">System</tspan></text></g></a><g id="4"><polygon points="912,384 904,400 920,400 912,384" fill="#adb3b3" opacity="1" transform="matrix(1,0,0,1,0,0)"></polygon><circle r="4" fill="#adb3b3" opacity="1" cx="912" cy="472"></circle></g><g id="5"><polygon points="912,160 904,176 920,176 912,160" fill="#adb3b3" opacity="1" transform="matrix(1,0,0,1,0,0)"></polygon><circle r="4" fill="#adb3b3" opacity="1" cx="912" cy="256"></circle></g><g id="6"><polygon points="984,528 976,544 992,544 984,528" fill="#adb3b3" opacity="1" transform="matrix(-1.8369701987210297e-16,-1,1,-1.8369701987210297e-16,512.0000000000002,1520)"></polygon><circle r="4" fill="#adb3b3" opacity="1" cx="1040" cy="320"></circle></g><g id="7"><polygon points="551.6024354482763,600.5189870481069 543.6024354482763,616.5189870481069 559.6024354482763,616.5189870481069 551.6024354482763,600.5189870481069" fill="#adb3b3" opacity="1" transform="matrix(0.9998657376509094,-0.016386173189701363,0.016386173189701363,0.9998657376509094,-9.368584135003175,8.600293080884398)"></polygon><circle r="4" fill="#adb3b3" opacity="1" cx="912" cy="600"></circle></g><g id="8"><polygon points="552,368 544,384 560,384 552,368" fill="#adb3b3" opacity="1" transform="matrix(1,0,0,1,0,0)"></polygon><circle r="4" fill="#adb3b3" opacity="1" cx="552" cy="472"></circle></g><g id="2"><polygon points="416,464 408,480 424,480 416,464" fill="#adb3b3" opacity="1" transform="matrix(6.123233995736766e-17,1,-1,6.123233995736766e-17,888,119.99999999999994)"></polygon><circle r="4" fill="#adb3b3" opacity="1" cx="288" cy="536"></circle></g><g id="1"><polygon points="96,392 88,408 104,408 96,392" fill="#adb3b3" opacity="1" transform="matrix(-1,1.2246467991473532e-16,-1.2246467991473532e-16,-1,256.00000000000006,864)"></polygon><circle r="4" fill="#adb3b3" opacity="1" cx="160" cy="368"></circle></g><g id="3"><polygon points="776,464 768,480 784,480 776,464" fill="#adb3b3" opacity="1" transform="matrix(6.123233995736766e-17,1,-1,6.123233995736766e-17,1248,-240)"></polygon><circle r="4" fill="#adb3b3" opacity="1" cx="680" cy="536"></circle></g></g></svg>