<svg xmlns="http://www.w3.org/2000/svg" xmlns:xlink="http://www.w3.org/1999/xlink" version="1.1" width="1024" height="648"><g id="setup-nfc-tag"><g id="3"><polyline points="624,552 736,552" fill="none" stroke-width="1" stroke="#adb3b3" opacity="1"></polyline></g><g id="3"><rect width="20.4" height="22.2" x="669.8" y="540.9" rx="4" ry="4" fill-opacity="0.8" fill="#323435" stroke-opacity="1" stroke-width="1" stroke="#434647" opacity="0.8"></rect><g opacity="1" fill="#e5e7e8"><text font-family="IBM Plex Sans Medium, Arial, sans-serif" font-size="14" text-anchor="middle" x="680" y="557.2500000000001"><tspan dy="0" x="680">3</tspan></text></g></g><g id="1"><polyline points="496,192 496,272" fill="none" stroke-width="1" stroke="#adb3b3" opacity="1"></polyline></g><g id="1"><rect width="20.4" height="22.2" x="485.8" y="220.9" rx="4" ry="4" fill-opacity="0.8" fill="#323435" stroke-opacity="1" stroke-width="1" stroke="#434647" opacity="0.8"></rect><g opacity="1" fill="#e5e7e8"><text font-family="IBM Plex Sans Medium, Arial, sans-serif" font-size="14" text-anchor="middle" x="496" y="237.24999999999997"><tspan dy="0" x="496">1</tspan></text></g></g><g id="5"><polyline points="368,336 288,336" fill="none" stroke-width="1" stroke="#adb3b3" opacity="1"></polyline></g><g id="5"><rect width="20.4" height="22.2" x="317.8" y="324.9" rx="4" ry="4" fill-opacity="0.8" fill="#323435" stroke-opacity="1" stroke-width="1" stroke="#434647" opacity="0.8"></rect><g opacity="1" fill="#e5e7e8"><text font-family="IBM Plex Sans Medium, Arial, sans-serif" font-size="14" text-anchor="middle" x="328" y="341.25"><tspan dy="0" x="328">5</tspan></text></g></g><g id="2"><polyline points="496,400 496,488" fill="none" stroke-width="1" stroke="#adb3b3" opacity="1"></polyline></g><g id="2"><rect width="20.4" height="22.2" x="485.8" y="432.9" rx="4" ry="4" fill-opacity="0.8" fill="#323435" stroke-opacity="1" stroke-width="1" stroke="#434647" opacity="0.8"></rect><g opacity="1" fill="#e5e7e8"><text font-family="IBM Plex Sans Medium, Arial, sans-serif" font-size="14" text-anchor="middle" x="496" y="449.25"><tspan dy="0" x="496">2</tspan></text></g></g><g id="4"><polyline points="864,488 864,400" fill="none" stroke-width="1" stroke="#adb3b3" opacity="1"></polyline></g><g id="4"><rect width="20.4" height="22.2" x="853.8" y="432.9" rx="4" ry="4" fill-opacity="0.8" fill="#323435" stroke-opacity="1" stroke-width="1" stroke="#434647" opacity="0.8"></rect><g opacity="1" fill="#e5e7e8"><text font-family="IBM Plex Sans Medium, Arial, sans-serif" font-size="14" text-anchor="middle" x="864" y="449.25"><tspan dy="0" x="864">4</tspan></text></g></g><a href="https://app.icepanel.io/landscapes/lOMxQS5qhpIIqLMpiD2Z/versions/latest/model/objects?object=fALAV3F1m4&amp;focus=fALAV3F1m4" id="pet owner" target="_blank"><rect width="56" height="56" rx="8" ry="8" fill-opacity="0.8" fill="#1f2121" stroke-opacity="1" stroke-width="1" stroke="#434647" opacity="1" x="468" y="32"></rect><rect width="256" height="96" rx="8" ry="8" fill-opacity="0.8" fill="#1f2121" stroke-opacity="1" stroke-width="1" stroke="#434647" opacity="1" x="368" y="96"></rect><path d="M496 61.714285714285715C499.7875 61.714285714285715 502.8571428571429 58.644642857142856 502.8571428571429 54.85714285714286C502.8571428571429 51.06964285714285 499.7875 48 496 48C492.2125 48 489.1428571428571 51.06964285714285 489.1428571428571 54.85714285714286C489.1428571428571 58.644642857142856 492.2125 61.714285714285715 496 61.714285714285715ZM500.8 63.42857142857143L499.90535714285716 63.42857142857143C498.71607142857147 63.974999999999994 497.3928571428571 64.28571428571428 496 64.28571428571428C494.6071428571429 64.28571428571428 493.2892857142857 63.974999999999994 492.09464285714284 63.42857142857143L491.2 63.42857142857143C487.225 63.42857142857143 484 66.65357142857142 484 70.62857142857143L484 72.85714285714286C484 74.27678571428571 485.1517857142857 75.42857142857143 486.57142857142856 75.42857142857143L505.42857142857144 75.42857142857143C506.8482142857143 75.42857142857143 508 74.27678571428571 508 72.85714285714286L508 70.62857142857143C508 66.65357142857142 504.775 63.42857142857143 500.8 63.42857142857143Z " fill="#ffffff" opacity="1"></path><text font-family="IBM Plex Sans Medium, Arial, sans-serif" font-size="24" font-weight="500" text-anchor="middle" fill="#ffffff" opacity="1" x="496" y="144"><tspan dy="0" x="496">pet owner</tspan></text><g id="Actor" opacity="1"><text font-family="Courier New, monospace" font-size="12" text-anchor="middle" fill="#adb3b3" x="496" y="180.6552734375"><tspan dy="0" x="496">Actor</tspan></text></g></a><a href="https://app.icepanel.io/landscapes/lOMxQS5qhpIIqLMpiD2Z/versions/latest/model/objects?object=6zveAAAo0F&amp;focus=6zveAAAo0F" id="backend" target="_blank"><rect width="256" height="128" rx="8" ry="8" fill-opacity="0.8" fill="#1f2121" stroke-opacity="1" stroke-width="1" stroke="#434647" opacity="1" x="736" y="488"></rect><text font-family="IBM Plex Sans Medium, Arial, sans-serif" font-size="24" font-weight="500" text-anchor="middle" fill="#ffffff" opacity="1" x="864.0000000000001" y="557.0000000000001"><tspan dy="0" x="864.0000000000001">backend</tspan></text><g id="System" opacity="1"><text font-family="Courier New, monospace" font-size="12" text-anchor="middle" fill="#adb3b3" x="864" y="604.6552734375"><tspan dy="0" x="864">System</tspan></text></g></a><a href="https://app.icepanel.io/landscapes/lOMxQS5qhpIIqLMpiD2Z/versions/latest/model/objects?object=emIwiRiOfI&amp;focus=emIwiRiOfI" id="frontend" target="_blank"><rect width="256" height="128" rx="8" ry="8" fill-opacity="0.8" fill="#1f2121" stroke-opacity="1" stroke-width="1" stroke="#434647" opacity="1" x="368" y="488"></rect><text font-family="IBM Plex Sans Medium, Arial, sans-serif" font-size="24" font-weight="500" text-anchor="middle" fill="#ffffff" opacity="1" x="496" y="557.0000000000001"><tspan dy="0" x="496">frontend</tspan></text><g id="System" opacity="1"><text font-family="Courier New, monospace" font-size="12" text-anchor="middle" fill="#adb3b3" x="496" y="604.6552734375"><tspan dy="0" x="496">System</tspan></text></g></a><a href="https://app.icepanel.io/landscapes/lOMxQS5qhpIIqLMpiD2Z/versions/latest/model/objects?object=bNlv73hLvH&amp;focus=bNlv73hLvH" id="mobile phone (owner)" target="_blank"><rect width="256" height="128" rx="8" ry="8" fill-opacity="0.8" fill="#1f2121" stroke-opacity="1" stroke-width="1" stroke="#434647" opacity="1" x="368" y="272"></rect><text font-family="IBM Plex Sans Medium, Arial, sans-serif" font-size="24" font-weight="500" text-anchor="middle" fill="#ffffff" opacity="1" x="496" y="341"><tspan dy="0" x="496">mobile phone (owner)</tspan></text><g id="System" opacity="1"><text font-family="Courier New, monospace" font-size="12" text-anchor="middle" fill="#adb3b3" x="496" y="388.6552734375"><tspan dy="0" x="496">System</tspan></text></g></a><a href="https://app.icepanel.io/landscapes/lOMxQS5qhpIIqLMpiD2Z/versions/latest/model/objects?object=dOaylTKlKa&amp;focus=dOaylTKlKa" id="database" target="_blank"><rect width="256" height="128" rx="8" ry="8" fill-opacity="0.8" fill="#1f2121" stroke-opacity="1" stroke-width="1" stroke="#434647" opacity="1" x="736" y="272"></rect><text font-family="IBM Plex Sans Medium, Arial, sans-serif" font-size="24" font-weight="500" text-anchor="middle" fill="#ffffff" opacity="1" x="864" y="341"><tspan dy="0" x="864">database</tspan></text><g id="System" opacity="1"><text font-family="Courier New, monospace" font-size="12" text-anchor="middle" fill="#adb3b3" x="864" y="388.6552734375"><tspan dy="0" x="864">System</tspan></text></g></a><a href="https://app.icepanel.io/landscapes/lOMxQS5qhpIIqLMpiD2Z/versions/latest/model/objects?object=iymTqjHGa9&amp;focus=iymTqjHGa9" id="pets nfc tag" target="_blank"><rect width="256" height="128" rx="8" ry="8" fill-opacity="0.8" fill="#1f2121" stroke-opacity="1" stroke-width="1" stroke="#434647" opacity="1" x="32" y="272"></rect><text font-family="IBM Plex Sans Medium, Arial, sans-serif" font-size="24" font-weight="500" text-anchor="middle" fill="#ffffff" opacity="1" x="160" y="341"><tspan dy="0" x="160">pets nfc tag</tspan></text><g id="System" opacity="1"><text font-family="Courier New, monospace" font-size="12" text-anchor="middle" fill="#adb3b3" x="160" y="388.6552734375"><tspan dy="0" x="160">System</tspan></text></g></a><g id="3"><polygon points="728,480 720,496 736,496 728,480" fill="#adb3b3" opacity="1" transform="matrix(6.123233995736766e-17,1,-1,6.123233995736766e-17,1216,-176)"></polygon><circle r="4" fill="#adb3b3" opacity="1" cx="624" cy="552"></circle></g><g id="1"><polygon points="432.00000000000006,192 424.00000000000006,208 440.00000000000006,208 432.00000000000006,192" fill="#adb3b3" opacity="1" transform="matrix(-1,1.2246467991473532e-16,-1.2246467991473532e-16,-1,928,463.99999999999994)"></polygon><circle r="4" fill="#adb3b3" opacity="1" cx="496" cy="192"></circle></g><g id="5"><polygon points="232,328 224,344 240,344 232,328" fill="#adb3b3" opacity="1" transform="matrix(-1.8369701987210297e-16,-1,1,-1.8369701987210297e-16,-39.99999999999994,568)"></polygon><circle r="4" fill="#adb3b3" opacity="1" cx="368" cy="336"></circle></g><g id="2"><polygon points="432,408 424,424 440,424 432,408" fill="#adb3b3" opacity="1" transform="matrix(-1,1.2246467991473532e-16,-1.2246467991473532e-16,-1,928,896)"></polygon><circle r="4" fill="#adb3b3" opacity="1" cx="496" cy="400"></circle></g><g id="4"><polygon points="864,400 856,416 872,416 864,400" fill="#adb3b3" opacity="1" transform="matrix(1,0,0,1,0,0)"></polygon><circle r="4" fill="#adb3b3" opacity="1" cx="864" cy="488"></circle></g></g></svg>